<?xml version="1.0" encoding="utf-8"?>
<svg version="1.1" xmlns="http://www.w3.org/2000/svg" xmlns:xlink="http://www.w3.org/1999/xlink" x="0px" y="0px"
	 viewBox="0 0 104 44" style="enable-background:new 0 0 104 44;" xml:space="preserve" shape-rendering="geometricPrecision">
<path style="fill:#DB001B;" d="M45.9,40.8c0.4,0,0.7-0.2,1-0.3c0.3-0.1,0.6-0.3,0.9-0.6c0.3-0.2,0.5-0.5,0.7-0.8
	c0.5-0.6,0.7-1.3,1-1.9c0.1-0.3,0.3-0.7,0.3-1.1l7-28.9C57,6.7,57.1,6.1,57,5.6C57,5.3,57,5,56.8,4.8c-0.1-0.3-0.3-0.5-0.4-0.7
	c-0.1-0.1-0.3-0.3-0.4-0.4c-0.3-0.3-0.8-0.4-1.2-0.4L55.1,2h19.7l-0.3,1.5c-0.3,0-0.7,0.1-1,0.1c-0.3,0.1-0.6,0.2-0.9,0.4
	c-0.2,0.1-0.4,0.3-0.6,0.5c-0.2,0.2-0.4,0.4-0.5,0.6c-0.1,0.2-0.3,0.4-0.4,0.7C71.1,6,71,6.2,71,6.5l-3.4,13.7L85.8,5.8
	c0.2-0.1,0.3-0.3,0.5-0.5c0.1-0.2,0.3-0.3,0.4-0.5c0.2-0.3,0.2-0.6,0.1-0.9c-0.1-0.1-0.1-0.2-0.2-0.3c-0.2-0.2-0.4-0.3-0.6-0.3
	c-0.1,0-0.2,0-0.3,0L85.9,2H103l-0.3,1.4c-0.4,0.1-0.9,0.2-1.3,0.3c-0.4,0.1-0.9,0.3-1.3,0.5c-0.5,0.2-1,0.5-1.4,0.8
	c-0.5,0.3-0.9,0.6-1.3,0.9l-16,12.8l12.3,16.8c0.4,0.5,0.8,1.1,1.2,1.6c0.4,0.5,0.8,1,1.3,1.5c0.3,0.3,0.5,0.5,0.8,0.8
	c0.3,0.2,0.5,0.5,0.8,0.7c0.2,0.2,0.4,0.3,0.6,0.4c0.2,0.1,0.4,0.2,0.7,0.3l-0.3,1.1c-2.8,0.7-5.6,1-8.4,0.9
	c-1.1-0.1-2.1-0.2-3.1-0.3c-0.8-0.1-1.6-0.3-2.3-0.5c-0.7-0.3-1.5-0.6-2.2-0.9c-0.4-0.2-0.8-0.5-1.1-0.7c-0.4-0.3-0.7-0.6-1-0.9
	c-0.3-0.3-0.7-0.7-1-1.1c-0.3-0.4-0.6-0.8-0.9-1.2L67.4,21l-3.9,16c-0.1,0.6-0.2,1.2-0.1,1.8c0,0.2,0,0.3,0.1,0.5
	c0.1,0.2,0.2,0.3,0.3,0.4c0.1,0.1,0.2,0.3,0.3,0.3c0.2,0.2,0.5,0.3,0.7,0.4c0.3,0.1,0.5,0.3,0.8,0.3L65.4,42H45.7L45.9,40.8z"/>
<path style="fill:#DB001B;" d="M21.6,36c1.5,0.1,3.1-0.1,4.6-0.6c0.5-0.2,1-0.4,1.4-0.6c0.6-0.3,1.2-0.7,1.7-1.1
	c0.5-0.4,1-0.9,1.4-1.5c0.6-0.8,1.1-1.6,1.6-2.5c0.5-0.9,0.8-1.7,1.2-2.7c0.3-1,0.6-2,0.9-3c0.3-1,0.5-2,0.7-3
	c0.3-1.7,0.5-3.4,0.6-5.1c0-1.1-0.1-2.2-0.4-3.3c-0.2-0.5-0.4-1-0.6-1.5c-0.3-0.5-0.6-0.9-1-1.2c-0.5-0.5-1.1-0.9-1.7-1.2
	c-0.6-0.3-1.3-0.5-2-0.7C29.3,8,28.6,8,27.8,8c-1.5,0-3,0.3-4.4,0.9c-0.7,0.3-1.3,0.6-2,1.1c-0.5,0.4-1,0.8-1.4,1.2
	c-0.4,0.4-0.8,0.9-1.1,1.5c-0.5,0.8-0.9,1.6-1.3,2.5c-0.4,0.8-0.7,1.7-1,2.6c-0.3,0.9-0.6,1.9-0.8,2.8c-0.4,1.6-0.8,3.1-1,4.7
	c-0.1,1.1-0.3,2.2-0.2,3.2c0.1,0.9,0.2,1.9,0.5,2.8c0.1,0.4,0.3,0.9,0.6,1.3c0.3,0.5,0.6,0.9,1,1.3c0.4,0.4,0.8,0.8,1.3,1
	c0.6,0.3,1.1,0.6,1.8,0.8C20.3,35.9,20.9,36,21.6,36z M1.5,19.7c0.2-1.1,0.6-2.3,1-3.4c0.4-1,0.8-2,1.4-2.9c0.5-0.9,1.2-1.8,1.8-2.7
	c0.8-0.9,1.6-1.8,2.4-2.6c0.9-0.8,1.8-1.5,2.8-2.2c0.9-0.6,1.9-1.2,2.8-1.7c1-0.5,2-1,3-1.3c1-0.4,1.9-0.7,2.9-0.9
	c2.6-0.7,5.4-1,8-1c2.4,0,4.8,0.2,7.2,1c0.8,0.2,1.6,0.5,2.3,0.8c0.8,0.3,1.5,0.7,2.2,1.1c0.8,0.4,1.5,0.9,2.2,1.4
	c0.7,0.5,1.4,1.1,2,1.6c0.6,0.6,1.2,1.2,1.8,1.9c0.6,0.6,1.1,1.4,1.5,2.1c0.5,0.7,0.9,1.5,1.2,2.3c0.6,1.5,1,3.1,1.2,4.7
	c0.2,1.8,0.2,3.7-0.1,5.6c-0.1,0.9-0.3,1.7-0.5,2.5c-0.2,0.8-0.5,1.6-0.9,2.4c-0.5,1.2-1.2,2.4-1.9,3.5c-0.7,1.1-1.5,2.1-2.4,3.1
	c-0.9,1-1.9,1.9-2.9,2.7s-2.2,1.5-3.4,2.1c-1.1,0.5-2.2,1-3.3,1.4c-2.4,0.9-4.9,1.4-7.3,1.7c-2.9,0.3-5.9,0.3-8.8-0.2
	C17,42.5,16,42.3,15.1,42c-0.9-0.3-1.8-0.6-2.7-1c-0.9-0.4-1.7-0.8-2.6-1.3c-0.8-0.5-1.6-1-2.3-1.7c-0.7-0.6-1.4-1.2-2-1.9
	c-0.6-0.7-1.2-1.4-1.7-2.2c-0.4-0.7-0.8-1.4-1.2-2.1c-0.6-1.2-1-2.5-1.3-3.8C1.1,26.5,1,24.9,1,23.3C1.1,22.1,1.2,20.9,1.5,19.7z"/>
</svg>